<?xml version="1.0" encoding="UTF-8" standalone="no"?>
<!-- Created with Inkscape (http://www.inkscape.org/) -->

<svg
   width="8.4666681mm"
   height="8.4666624mm"
   viewBox="0 0 8.4666681 8.4666623"
   version="1.1"
   id="svg1"
   xml:space="preserve"
   inkscape:version="1.4.2 (ebf0e94, 2025-05-08)"
   sodipodi:docname="logos2.svg"
   inkscape:export-filename="..\admin-leticia-fisio\public\icons\apple-touch-icon.png"
   inkscape:export-xdpi="96"
   inkscape:export-ydpi="96"
   xmlns:inkscape="http://www.inkscape.org/namespaces/inkscape"
   xmlns:sodipodi="http://sodipodi.sourceforge.net/DTD/sodipodi-0.dtd"
   xmlns="http://www.w3.org/2000/svg"
   xmlns:svg="http://www.w3.org/2000/svg"><sodipodi:namedview
     id="namedview1"
     pagecolor="#ffffff"
     bordercolor="#000000"
     borderopacity="0.25"
     inkscape:showpageshadow="2"
     inkscape:pageopacity="0.0"
     inkscape:pagecheckerboard="0"
     inkscape:deskcolor="#d1d1d1"
     inkscape:document-units="mm"
     showguides="false"
     inkscape:zoom="0.21922619"
     inkscape:cx="-953.35326"
     inkscape:cy="659.13658"
     inkscape:window-width="1366"
     inkscape:window-height="705"
     inkscape:window-x="-8"
     inkscape:window-y="-8"
     inkscape:window-maximized="1"
     inkscape:current-layer="g19"><sodipodi:guide
       position="-209.09638,107.30631"
       orientation="0,-1"
       id="guide5"
       inkscape:locked="false" /><sodipodi:guide
       position="-262.53925,-63.695841"
       orientation="0,-1"
       id="guide40"
       inkscape:locked="false" /><sodipodi:guide
       position="-265.06619,-54.342391"
       orientation="0,-1"
       id="guide41"
       inkscape:locked="false" /><sodipodi:guide
       position="-269.06403,-57.812211"
       orientation="0,-1"
       id="guide42"
       inkscape:locked="false" /><sodipodi:guide
       position="-280.00153,-48.609622"
       orientation="1,0"
       id="guide43"
       inkscape:locked="false" /><sodipodi:guide
       position="-277.05972,-54.342381"
       orientation="1,0"
       id="guide44"
       inkscape:locked="false" /><sodipodi:guide
       position="-275.09852,-48.609632"
       orientation="1,0"
       id="guide45"
       inkscape:locked="false" /><sodipodi:guide
       position="-269.02632,-51.193141"
       orientation="1,0"
       id="guide46"
       inkscape:locked="false" /><sodipodi:guide
       position="-272.06242,-41.707692"
       orientation="1,0"
       id="guide47"
       inkscape:locked="false" /><sodipodi:guide
       position="-259.33415,-54.342381"
       orientation="1,0"
       id="guide48"
       inkscape:locked="false" /><sodipodi:guide
       position="-284.72295,-57.812211"
       orientation="1,0"
       id="guide49"
       inkscape:locked="false" /><sodipodi:guide
       position="-264.08559,-64.676441"
       orientation="1,0"
       id="guide51"
       inkscape:locked="false" /><inkscape:page
       x="-5.9565159e-14"
       y="0"
       width="8.4666672"
       height="8.4666624"
       id="page1"
       margin="0"
       bleed="0" /></sodipodi:namedview><defs
     id="defs1" /><g
     inkscape:groupmode="layer"
     id="layer2"
     inkscape:label="vetor"
     transform="translate(-125.66966,-141.53362)"><g
       id="g51"
       transform="matrix(0.2007787,0,0,0.2007787,117.58528,125.41155)"
       inkscape:export-filename="..\admin-leticia-fisio\public\icons\favicon.ico"
       inkscape:export-xdpi="96"
       inkscape:export-ydpi="96"
       style="stroke-width:4.98061"><g
         id="g50"
         inkscape:export-filename="imagens\logo2.png"
         inkscape:export-xdpi="96"
         inkscape:export-ydpi="96"
         style="stroke-width:4.98061"><circle
           style="opacity:0.978261;fill:#c2ab9f;fill-opacity:1;stroke:none;stroke-width:1.31779;stroke-linecap:round;stroke-linejoin:round;stroke-dasharray:none;stroke-opacity:1"
           id="circle32"
           cx="61.349682"
           cy="101.38226"
           r="21.084574" /><path
           style="opacity:0.978261;fill:#1b3d54;fill-opacity:0.980392;stroke:none;stroke-width:1.31779;stroke-linecap:round;stroke-linejoin:round;stroke-dasharray:none;stroke-opacity:1"
           d="m 55.192825,93.124591 c -0.78578,-0.967574 -1.28788,-2.299876 -1.58686,-3.893329 -1.59574,1.972388 -1.63597,4.996876 -1.44163,7.662691 -0.0167,2.756364 -5.73087,4.668027 -0.4958,5.819127 -0.32118,0.94401 -0.24578,1.6614 0.88722,1.77445 -1.10242,0.95344 -0.62919,1.42206 0.0522,1.82663 0.63117,1.13793 -2.35752,4.07863 2.16586,4.61878 3.02139,-0.44442 5.11329,-2.10994 3.57499,5.24505 l 11.58607,0.0261 c -3.8805,-7.68167 3.13395,-11.72621 3.75765,-16.778941 -1.31451,0.744101 -2.83189,1.340671 -5.21895,1.304741"
           id="path32"
           sodipodi:nodetypes="ccccccccccc" /><path
           style="opacity:0.978261;fill:#c2ab9f;fill-opacity:0.980392;stroke:none;stroke-width:0.658896;stroke-linecap:round;stroke-linejoin:round;stroke-dasharray:none;stroke-opacity:1"
           d="m 57.057805,93.963307 c 0.21439,2.725943 1.79756,4.137845 4.52586,4.450432 1.51763,0.131514 0.77794,-0.914702 0.0377,-1.961208 z"
           id="path33"
           sodipodi:nodetypes="cccc" /><path
           style="opacity:0.978261;fill:#ebe5cc;fill-opacity:1;stroke:none;stroke-width:1.31779;stroke-linecap:round;stroke-linejoin:round;stroke-dasharray:none;stroke-opacity:1"
           d="m 67.247115,109.94134 c 5.14426,-7.13921 -0.43045,-12.849319 -5.37553,-15.970003 -0.96954,-1.072681 -1.908,0.31924 -1.04379,1.617877 2.82017,3.32812 1.58472,3.342964 -1.20036,2.191961 -3.47601,-1.758499 -2.26284,-4.403858 -2.55729,-6.367123 -0.59528,-1.889207 -0.93325,-1.320263 -1.4613,0.417515 -2.71728,7.690944 1.46854,9.165083 5.01019,11.064183 4.01486,1.46111 4.01739,0.97593 1.5135,5.0102 z"
           id="path34"
           sodipodi:nodetypes="ccccccccc" /><g
           id="g49"
           transform="translate(-7.6243036,64.432058)"
           style="fill:#1b3d54;fill-opacity:0.980392;stroke-width:4.98061"><g
             id="g37"
             style="fill:#1b3d54;fill-opacity:0.980392;stroke-width:4.98061"><path
               style="opacity:0.978261;fill:#1b3d54;fill-opacity:0.980392;stroke:none;stroke-width:0.658896;stroke-linecap:round;stroke-linejoin:round;stroke-dasharray:none;stroke-opacity:1"
               d="m 72.470366,30.606142 -0.980604,-1.18804 c -4.377001,-1.336631 -4.022321,-3.479798 -4.129849,-5.54418 3.006037,0.444319 5.337916,1.662262 5.29903,5.600754 0.809211,-4.061722 3.821775,-5.098503 7.58082,-5.110452 -0.624451,3.527733 -2.733719,5.075709 -5.921338,5.185884 z"
               id="path35"
               sodipodi:nodetypes="ccccccc" /><path
               style="opacity:0.978261;fill:#1b3d54;fill-opacity:0.980392;stroke:none;stroke-width:0.658896;stroke-linecap:round;stroke-linejoin:round;stroke-dasharray:none;stroke-opacity:1"
               d="m 72.941809,26.759159 c 0.156961,-0.837187 -2.883724,-1.863923 -0.697736,-4.129849 0.493356,0.319701 0.837332,0.743968 0.829742,1.414332 0.310457,-0.924366 0.747319,-1.216712 1.206897,-1.395474 1.649564,2.673491 -0.751346,2.8048 -1.338903,4.110991 z"
               id="path36"
               sodipodi:nodetypes="ccccc" /><path
               style="opacity:0.978261;fill:#1b3d54;fill-opacity:0.980392;stroke:none;stroke-width:0.658896;stroke-linecap:round;stroke-linejoin:round;stroke-dasharray:none;stroke-opacity:1"
               d="m 73.130388,23.251616 c -0.07314,-0.190701 -0.08704,-0.389864 -0.396013,-0.546875 0.254799,-0.192524 0.528791,-0.317874 0.924029,-0.01886 -0.261792,0.179046 -0.426057,0.368929 -0.528016,0.565735 z"
               id="path37"
               sodipodi:nodetypes="cccc" /></g><path
             style="opacity:0.978261;fill:#1b3d54;fill-opacity:0.980392;stroke:none;stroke-width:0.658896;stroke-linecap:round;stroke-linejoin:round;stroke-dasharray:none;stroke-opacity:1"
             d="m 72.966105,26.788909 c 0.102297,-1.181022 -2.757181,-1.570243 -0.760065,-4.187018 0.538265,0.248468 0.844074,0.729392 0.920078,1.44012 0.03714,-0.570225 0.456801,-1.034195 1.133427,-1.426786 1.967637,2.906646 -1.249384,3.028688 -1.29344,4.173684 z"
             id="path38"
             sodipodi:nodetypes="ccccc" /><path
             style="opacity:0.978261;fill:#1b3d54;fill-opacity:0.980392;stroke:none;stroke-width:0.658896;stroke-linecap:round;stroke-linejoin:round;stroke-dasharray:none;stroke-opacity:1"
             d="m 72.752753,22.641894 c 0.231787,0.0876 0.311526,0.361038 0.3867,0.640054 0.08975,-0.279399 0.274722,-0.489552 0.560046,-0.626719 -0.43109,-0.281664 -0.689256,-0.148311 -0.946746,-0.01333 z"
             id="path47"
             sodipodi:nodetypes="cccc" /></g></g></g></g></svg>
